<svg width="42" height="42" viewBox="0 0 42 42" fill="none" xmlns="http://www.w3.org/2000/svg">
<path d="M33.9905 2.00143C33.7655 2.00143 33.6172 2.00143 33.468 2.00143C24.9419 2.00143 16.4149 2.00143 7.88872 2.00143C6.27381 2.00143 5.33387 2.94465 5.33387 4.56612C5.33304 12.9118 5.33387 21.2566 5.33303 29.6023C5.33303 29.7831 5.34387 29.9656 5.31887 30.1431C5.24721 30.6572 4.81557 31.0113 4.3006 30.9946C3.80396 30.9788 3.39898 30.6197 3.34565 30.1197C3.31899 29.8723 3.33232 29.6206 3.33232 29.3707C3.33149 21.095 3.33232 12.8185 3.33149 4.54279C3.33149 1.84811 5.18888 -0.000832952 7.89205 2.81509e-07C17.7381 0.00166675 27.5834 0.00166675 37.4295 0.000833515C40.1385 0.000833515 41.9925 1.83645 41.9975 4.53363C41.9992 5.53351 42.0025 6.53339 41.9967 7.53327C41.9917 8.28651 41.6209 8.66063 40.8709 8.66563C39.8293 8.67147 38.7877 8.6723 37.7461 8.6648C37.0903 8.6598 36.6587 8.24652 36.667 7.65325C36.6753 7.07666 37.0995 6.67587 37.7319 6.66837C38.4669 6.66004 39.2019 6.66671 40.0435 6.66671C39.9935 5.64266 40.0476 4.62112 39.8668 3.6429C39.666 2.55553 38.4861 1.87228 37.3795 2.01643C36.2004 2.16974 35.3404 3.1188 35.3363 4.32448C35.3246 7.17081 35.3321 10.018 35.3321 12.8643C35.3321 21.085 35.3354 29.3048 35.3296 37.5255C35.3279 39.4111 34.4705 40.7876 32.7689 41.615C32.0931 41.9433 31.3615 42.0008 30.6182 42C23.0362 41.995 15.4541 41.9958 7.87205 41.9958C6.73295 41.9958 5.59469 42 4.45559 41.995C1.86657 41.9842 0.0025178 40.1077 0.00168451 37.5155C0.000851229 36.5015 -0.00164862 35.4883 0.00168451 34.4742C0.00418436 33.7068 0.384995 33.3302 1.16078 33.3302C9.94943 33.3294 18.7397 33.3294 27.5301 33.331C28.2808 33.331 28.66 33.7076 28.6633 34.4559C28.6683 35.4833 28.6633 36.5115 28.665 37.5389C28.6667 38.9529 29.6566 39.9952 30.9949 39.9944C32.3381 39.9936 33.328 38.9679 33.3289 37.5455C33.3322 26.5893 33.3339 15.6331 33.3264 4.67778C33.3255 3.74539 33.4697 2.86216 33.9905 2.00143ZM26.6509 35.3591C18.4164 35.3591 10.2202 35.3591 2.00823 35.3591C2.00823 36.219 1.9674 37.0531 2.01823 37.8813C2.09323 39.1128 3.11733 39.9936 4.42226 39.9936C11.9326 39.9969 19.4439 39.9961 26.9543 39.9952C27.0567 39.9952 27.1601 39.9819 27.3276 39.9711C26.3901 38.5137 26.7418 36.9206 26.6509 35.3591Z" fill="#31B7BC"/>
<path d="M17.6423 13.79C17.6473 14.4233 17.9306 14.9041 18.4456 15.259C19.4055 15.9198 20.3671 16.578 21.3254 17.2429C22.5903 18.1212 23.1786 19.336 22.987 20.8608C22.8045 22.3173 21.9754 23.3147 20.613 23.8755C20.4963 23.9238 20.383 24.0913 20.3538 24.2229C20.2388 24.7429 19.883 25.0737 19.3805 25.0803C18.8631 25.087 18.4581 24.7529 18.3898 24.2079C18.3573 23.9488 18.2506 23.838 18.0131 23.7488C17.1015 23.4039 16.4532 22.7581 16.0232 21.8932C15.7608 21.3658 15.9399 20.79 16.4257 20.5251C16.8965 20.2684 17.4848 20.4484 17.769 20.98C18.0389 21.4841 18.3981 21.8607 18.9639 21.9949C19.7497 22.1815 20.5296 21.8124 20.8854 21.1017C21.2438 20.3859 21.0754 19.5752 20.408 19.0469C19.8863 18.6344 19.3255 18.272 18.7806 17.8887C18.2698 17.5296 17.7531 17.178 17.2457 16.8147C16.0149 15.9348 15.4674 14.7291 15.6816 13.2401C15.8849 11.8228 16.7032 10.8412 18.0448 10.3188C18.2281 10.2471 18.3223 10.1738 18.3489 9.95215C18.4131 9.42971 18.8114 9.09642 19.3072 9.08725C19.8272 9.07725 20.2455 9.40638 20.3088 9.94798C20.338 10.1971 20.4605 10.2604 20.6496 10.3329C21.5737 10.6871 22.2512 11.3137 22.6653 12.2127C22.9303 12.7876 22.757 13.3651 22.2645 13.6117C21.7471 13.8717 21.1963 13.6609 20.8804 13.0818C20.4471 12.2869 19.7022 11.9319 18.9122 12.1427C18.1431 12.3477 17.6415 12.9985 17.6423 13.79Z" fill="#31B7BC"/>
</svg>
