<svg width="45" height="50" viewBox="0 0 45 50" fill="none" xmlns="http://www.w3.org/2000/svg">
<path d="M23.4562 37.3227C24.3625 37.3227 25.1777 37.3187 25.9929 37.3237C26.7041 37.3277 27.1162 37.6642 27.1252 38.2351C27.1352 38.8357 26.7281 39.1712 25.9809 39.1752C25.6678 39.1772 25.3548 39.1752 24.8986 39.1752C25.1137 39.4055 25.2367 39.5465 25.3698 39.6765C28.2575 42.5188 31.1463 45.3611 34.0371 48.2013C34.3052 48.4644 34.6052 48.7533 34.4412 49.1385C34.3182 49.4274 34.0711 49.7212 33.801 49.8791C33.4369 50.0915 33.0508 49.9218 32.7577 49.6369C31.9955 48.8963 31.2423 48.1457 30.4851 47.3992C27.9535 44.9044 25.4218 42.4106 22.8891 39.9178C22.7851 39.8155 22.67 39.7232 22.526 39.5941C22.368 39.744 22.2249 39.8751 22.0869 40.0121C18.857 43.2177 15.6171 46.4134 12.4083 49.6388C11.8551 50.1948 11.1429 50.0409 10.8549 49.6349C10.5398 49.1911 10.5908 48.7285 11.0539 48.2579C12.2422 47.0507 13.4356 45.8495 14.6279 44.6453C16.3223 42.9348 18.0168 41.2233 19.7102 39.5127C19.8343 39.3876 19.9533 39.2576 20.1874 39.0114C19.6662 39.0114 19.2911 39.0203 18.917 39.0094C18.2458 38.9905 17.8397 38.6361 17.8467 38.0901C17.8537 37.5362 18.2508 37.1907 18.926 37.1798C19.6592 37.1678 20.3934 37.1678 21.1266 37.1788C21.4257 37.1827 21.5377 37.0745 21.5337 36.7727C21.5157 35.5536 21.6548 35.781 20.5875 35.779C16.3703 35.77 12.1522 35.7869 7.93507 35.77C4.31009 35.7552 1.29928 33.5463 0.32102 30.1639C0.116965 29.4591 0.0189388 28.7006 0.0169382 27.966C-0.00506768 20.1252 -6.63357e-05 12.2824 0.0019342 4.44065C0.0019342 3.11234 0.662112 2.46904 2.00447 2.46904C8.32217 2.46804 14.6409 2.47003 20.9586 2.47003C21.6067 2.47003 21.6067 2.46904 21.6087 1.82176C21.6098 1.52393 21.5967 1.22511 21.6148 0.928278C21.6478 0.386233 22.0329 0.00501511 22.53 5.13294e-05C23.0441 -0.00491245 23.4142 0.350494 23.4452 0.911401C23.4662 1.29063 23.4723 1.67384 23.4482 2.05208C23.4232 2.43627 23.5553 2.56533 23.9574 2.56335C26.5081 2.54746 29.0588 2.5564 31.6084 2.5564C35.4425 2.5564 39.2765 2.55541 43.1105 2.55838C44.4109 2.55938 44.998 3.15007 44.998 4.44363C44.998 12.2864 45.004 20.1282 44.995 27.971C44.991 31.8358 42.5244 34.9282 38.7884 35.7452C38.1932 35.8753 37.566 35.9031 36.9529 35.9051C32.6687 35.919 28.3846 35.913 24.1004 35.914C23.4522 35.914 23.4522 35.913 23.4542 36.5702C23.4572 36.7985 23.4562 37.0269 23.4562 37.3227ZM22.557 4.46448C15.8902 4.46448 9.22442 4.46944 2.55762 4.45455C2.05749 4.45356 1.91245 4.5846 1.91345 5.09289C1.93045 12.6517 1.92045 20.2106 1.92645 27.7704C1.92945 31.2709 4.53715 33.8421 8.0581 33.8411C17.6907 33.8401 27.3243 33.8401 36.9569 33.8411C40.5508 33.8411 43.1385 31.2768 43.1375 27.7168C43.1355 20.1738 43.1315 12.6319 43.1485 5.08892C43.1495 4.57765 43.0045 4.45356 42.5054 4.45455C35.8566 4.46944 29.2068 4.46448 22.557 4.46448Z" fill="#31B7BC"/>
<path d="M23.5193 26.5166C20.4935 29.338 16.9835 30.3029 13.0735 29.0809C8.93734 27.7883 6.53569 24.8477 5.87351 20.5858C5.34337 17.1718 7.16886 12.9952 9.9036 11.246C10.9749 12.8533 12.0472 14.4615 13.1265 16.0807C12.2002 17.0079 11.7021 18.0861 11.7061 19.3816C11.7181 22.6557 15.3231 24.7931 18.2098 23.2127C18.5779 23.0111 18.81 23.027 19.1331 23.2712C20.4464 24.261 21.7808 25.223 23.1072 26.1969C23.2382 26.2932 23.3642 26.3964 23.5193 26.5166ZM20.2684 26.5394C19.7523 26.1582 19.2651 25.766 18.741 25.4295C18.5669 25.3183 18.2719 25.2667 18.0808 25.3302C17.1966 25.6261 16.2953 25.772 15.3761 25.638C10.3527 24.9014 8.62425 19.8055 10.5738 16.4103C10.6428 16.2892 10.6808 16.0728 10.6188 15.9685C10.2727 15.3907 9.8906 14.8338 9.51149 14.257C7.16886 16.9841 6.89679 21.7652 9.8966 25.0274C12.9304 28.3283 17.8217 28.2827 20.2684 26.5394Z" fill="#31B7BC"/>
<path d="M24.1524 13.0042C22.481 14.0843 20.8405 15.1445 19.1851 16.2147C18.4569 15.5665 17.6507 15.1028 16.6914 15.0254C16.1543 14.9817 15.6071 15.084 15.064 15.0909C14.9149 15.0929 14.6969 15.0373 14.6239 14.9311C13.5666 13.3894 12.5273 11.8337 11.484 10.281C15.3141 8.1198 20.9596 9.04704 24.1524 13.0042ZM14.5008 11.2569C14.8759 11.8675 15.194 12.4075 15.5411 12.9287C15.6051 13.025 15.7882 13.0905 15.9162 13.0915C17.0015 13.1034 18.0208 13.3645 18.989 13.845C19.0961 13.8986 19.2691 13.9503 19.3531 13.9016C19.9663 13.5482 20.5645 13.168 21.2397 12.752C19.1701 11.3244 17.0095 10.7804 14.5008 11.2569Z" fill="#31B7BC"/>
<path d="M24.6516 24.9242C23.0861 23.7597 21.5207 22.5952 19.9363 21.4158C20.5245 20.3357 20.5925 19.2278 20.3184 18.0791C20.2944 17.9769 20.3684 17.7883 20.4574 17.7307C22.0249 16.7032 23.6013 15.6906 25.1757 14.674C26.8672 17.3008 26.8762 21.8794 24.6516 24.9242ZM24.0114 22.1842C24.4845 20.6275 24.6466 19.1593 24.1864 17.5986C23.6563 17.9392 23.1802 18.2638 22.684 18.5547C22.403 18.7195 22.3179 18.9269 22.3189 19.2407C22.3209 19.6656 22.2459 20.0914 22.2349 20.5173C22.2309 20.6782 22.2599 20.9085 22.366 20.9929C22.8691 21.391 23.4032 21.7503 24.0114 22.1842Z" fill="#31B7BC"/>
<path d="M29.2978 17.3991C29.2978 16.8839 29.2978 16.4113 29.2978 15.908C32.6007 15.908 35.8756 15.908 39.1875 15.908C39.1875 16.3994 39.1875 16.8839 39.1875 17.3991C35.8996 17.3991 32.6227 17.3991 29.2978 17.3991Z" fill="#31B7BC"/>
<path d="M39.2035 11.4287C39.2035 11.9747 39.2035 12.4343 39.2035 12.9307C35.9096 12.9307 32.6347 12.9307 29.2748 12.9307C29.2748 12.5197 29.2428 12.0938 29.2978 11.6788C29.3108 11.5766 29.6059 11.4396 29.7719 11.4386C32.3556 11.4237 34.9383 11.4277 37.522 11.4277C38.0682 11.4287 38.6143 11.4287 39.2035 11.4287Z" fill="#31B7BC"/>
<path d="M39.1965 20.7755C39.1965 21.2629 39.1965 21.7345 39.1965 22.2477C39.0174 22.2566 38.8564 22.2725 38.6943 22.2725C35.7446 22.2745 32.7948 22.2646 29.845 22.2854C29.3808 22.2884 29.2138 22.1574 29.2658 21.7007C29.2988 21.4088 29.2718 21.11 29.2718 20.7755C32.5967 20.7755 35.8826 20.7755 39.1965 20.7755Z" fill="#31B7BC"/>
<path d="M39.1785 26.7608C35.8746 26.7608 32.6147 26.7608 29.2748 26.7608C29.2748 26.3369 29.2408 25.9269 29.2968 25.5288C29.3118 25.4225 29.5999 25.2806 29.7639 25.2796C31.9275 25.2627 34.0921 25.2687 36.2557 25.2687C37.219 25.2687 38.1822 25.2687 39.1785 25.2687C39.1785 25.7919 39.1785 26.2704 39.1785 26.7608Z" fill="#31B7BC"/>
</svg>
