<svg width="22" height="16" viewBox="0 0 22 16" fill="none" xmlns="http://www.w3.org/2000/svg">
<path d="M20.7377 2.10465H1.2623C0.85625 2.10465 0.5 1.7599 0.5 1.30233C0.5 0.844755 0.85625 0.5 1.2623 0.5H20.7377C21.1437 0.5 21.5 0.844756 21.5 1.30233C21.5 1.7599 21.1437 2.10465 20.7377 2.10465ZM1.2623 7.19767H14.7377C15.1437 7.19767 15.5 7.54243 15.5 8C15.5 8.45757 15.1437 8.80233 14.7377 8.80233H1.2623C0.85625 8.80233 0.5 8.45757 0.5 8C0.5 7.54243 0.85625 7.19767 1.2623 7.19767ZM1.2623 13.8953H17.7377C18.1437 13.8953 18.5 14.2401 18.5 14.6977C18.5 15.1552 18.1437 15.5 17.7377 15.5H1.2623C0.85625 15.5 0.5 15.1552 0.5 14.6977C0.5 14.2401 0.85625 13.8953 1.2623 13.8953Z" fill="#F4F4F4" stroke="#F4F4F4"/>
</svg>
