<svg width="48" height="52" viewBox="0 0 48 52" fill="none" xmlns="http://www.w3.org/2000/svg">
<path d="M24.2467 0C25.9879 1.46041 27.7301 2.91778 29.4682 4.38123C30.1633 4.96621 30.132 5.54713 29.3835 6.05187C27.8068 7.11519 26.2229 8.17038 24.6472 9.23573C24.2961 9.47236 23.9481 9.65923 23.5284 9.42362C23.1138 9.19206 23.0604 8.79598 23.0684 8.37249C23.0715 8.20695 23.0553 8.0414 23.0432 7.75298C21.9315 7.9368 20.8481 8.05054 19.7969 8.30139C12.3247 10.0787 6.88229 16.2788 5.9774 24.0044C5.78371 25.6588 4.71136 26.7373 3.14369 26.8541C1.70918 26.9607 0.32309 26.0802 0.078961 24.694C-0.0713497 23.8388 0.0113716 22.9035 0.172779 22.0382C1.81107 13.2869 6.70272 7.11621 14.8074 3.55252C17.2931 2.45975 19.925 1.93266 22.6286 1.7661C22.7597 1.75798 22.8899 1.73868 23.0503 1.72243C23.0876 1.07855 22.9444 0.38186 23.6414 0.00101559C23.8432 0 24.0449 0 24.2467 0ZM24.8106 2.72786C24.62 3.30675 24.2326 3.4601 23.706 3.47432C22.8848 3.49666 22.0606 3.54541 21.2445 3.64697C15.6457 4.3467 10.9568 6.83184 7.20107 11.0567C4.05059 14.6001 2.24787 18.7731 1.69203 23.4956C1.58711 24.3883 1.9644 25.0118 2.72504 25.1103C3.57343 25.22 4.14946 24.7356 4.26446 23.8307C4.33407 23.2772 4.39762 22.7217 4.50354 22.1753C6.276 12.9904 14.2768 6.23569 23.5607 6.08234C24.4253 6.06812 24.5504 6.1514 24.8772 6.99332C25.7962 6.37483 26.7072 5.76243 27.6605 5.1216C26.6981 4.31319 25.7841 3.54541 24.8106 2.72786Z" fill="#31B7BC"/>
<path d="M23.7423 51.998C21.9305 50.4898 20.1117 48.9898 18.3109 47.4695C17.8267 47.0602 17.8519 46.4437 18.3755 46.0852C20.0834 44.9143 21.8014 43.7575 23.5325 42.6231C24.1428 42.223 24.8197 42.6119 24.859 43.3431C24.8722 43.594 24.8611 43.8469 24.8611 44.2196C25.7982 44.0886 26.7021 44.0398 27.5687 43.8306C35.2063 41.9782 39.9456 37.2009 41.7392 29.4895C41.8724 28.9157 41.9269 28.3216 42.0056 27.7356C42.2275 26.0741 43.6832 24.9732 45.4113 25.1652C47.0122 25.3429 48.1411 26.7657 47.9857 28.41C46.99 38.9365 39.1305 47.702 28.8075 49.7647C27.5273 50.0206 26.2199 50.1445 24.8742 50.3365C24.8207 50.9123 25.0487 51.6608 24.2487 52C24.0782 51.998 23.9098 51.998 23.7423 51.998ZM23.1219 49.261C23.3469 48.6415 23.7928 48.5368 24.3436 48.5186C25.2827 48.4881 26.228 48.4434 27.1551 48.3022C33.0818 47.3943 37.9361 44.5842 41.6505 39.8455C44.2945 36.4727 45.8148 32.6186 46.2566 28.3399C46.3404 27.5335 45.9217 26.9709 45.2055 26.8846C44.3823 26.785 43.8224 27.2309 43.7044 28.0769C43.6489 28.478 43.5914 28.8802 43.5268 29.2803C41.9995 38.705 33.8807 45.7552 24.3708 45.9156C23.5093 45.9298 23.3529 45.8212 23.0826 44.9955C22.1585 45.616 21.2415 46.2325 20.2842 46.8754C21.2355 47.6756 22.1494 48.4434 23.1219 49.261Z" fill="#31B7BC"/>
<path d="M23.9491 10.3935C32.4734 10.3844 39.4321 17.398 39.4311 25.999C39.4301 34.602 32.5168 41.5699 23.9481 41.6045C15.445 41.638 8.44088 34.604 8.43382 26.0254C8.42776 17.4041 15.3774 10.4026 23.9491 10.3935ZM10.1599 26.0051C10.1851 33.6809 16.3983 39.9186 23.9673 39.8658C31.5968 39.813 37.7121 33.6362 37.7031 25.9919C37.694 18.3181 31.4909 12.0885 23.9047 12.1322C16.2923 12.1769 10.1346 18.3912 10.1599 26.0051Z" fill="#31B7BC"/>
<path d="M23.0664 30.5082C23.0664 29.3352 23.0765 28.1734 23.0493 27.0115C23.0472 26.9069 22.8233 26.7566 22.678 26.715C21.7661 26.4529 20.9661 26.0162 20.3679 25.2596C19.117 23.6784 19.5013 21.5223 21.2647 20.3848C21.6955 20.1066 22.1928 19.9075 22.6841 19.7582C22.9918 19.6648 23.0846 19.5409 23.0725 19.2413C23.0533 18.7822 23.2056 18.4075 23.6838 18.248C24.2366 18.0632 24.7824 18.4369 24.7733 19.0768C24.7662 19.548 24.9529 19.6922 25.3655 19.808C26.9886 20.264 28.064 21.4664 28.2153 22.9319C28.2819 23.5778 28.0146 24.0074 27.5021 24.0734C26.9624 24.1435 26.6033 23.8327 26.5185 23.1787C26.3924 22.1926 25.7226 21.7599 24.8459 21.438C24.8258 21.6096 24.7995 21.7376 24.7985 21.8645C24.7945 22.8293 24.8066 23.7941 24.7884 24.759C24.7824 25.0829 24.8661 25.2312 25.2071 25.3064C25.9758 25.4749 26.6507 25.8527 27.2146 26.4123C28.5724 27.76 28.6087 29.8095 27.2045 31.1043C26.6789 31.5888 25.9728 31.9005 25.307 32.193C24.9569 32.3474 24.7743 32.4429 24.7773 32.8735C24.7824 33.626 24.0712 34.0597 23.5093 33.6565C23.2954 33.5031 23.0957 33.1629 23.0977 32.91C23.1017 32.4337 22.899 32.3129 22.4934 32.1859C20.9742 31.7117 19.9069 30.7743 19.6547 29.1036C19.5558 28.4506 19.8544 27.9865 20.384 27.9245C20.9227 27.8626 21.2516 28.1713 21.3515 28.8345C21.4826 29.6988 22.1 30.3193 23.0664 30.5082ZM24.8278 27.0369C24.8278 28.214 24.8278 29.3545 24.8278 30.5001C25.7831 30.3203 26.4973 29.5891 26.5135 28.8C26.5296 27.9926 25.8214 27.239 24.8278 27.0369ZM23.0372 24.959C23.0372 23.8033 23.0372 22.6536 23.0372 21.4989C22.106 21.6645 21.3716 22.415 21.3545 23.198C21.3363 23.9932 22.0556 24.7579 23.0372 24.959Z" fill="#31B7BC"/>
<path d="M11.898 25.3632C12.2491 19.3824 16.7735 14.5625 22.6518 13.9308C23.0351 13.8891 23.4225 13.881 23.8089 13.877C24.392 13.8709 24.7531 14.1735 24.7834 14.6722C24.8157 15.1962 24.4727 15.5842 23.8775 15.5984C22.5893 15.6288 21.3313 15.8177 20.147 16.3337C16.1622 18.0693 13.9772 21.1161 13.6301 25.4831C13.613 25.7014 13.618 25.9248 13.5807 26.1391C13.503 26.5809 13.159 26.8632 12.7373 26.8582C12.2955 26.8531 11.9495 26.5383 11.9031 26.0711C11.8779 25.8375 11.898 25.5999 11.898 25.3632Z" fill="#31B7BC"/>
<path d="M24.1781 38.1393C20.6927 38.0773 17.9064 36.9602 15.5791 34.7188C15.4157 34.5614 15.2603 34.3542 15.1978 34.1409C15.0868 33.7611 15.2492 33.4361 15.5822 33.23C15.9383 33.0096 16.2883 33.0644 16.6081 33.3274C17.1407 33.7652 17.6381 34.2577 18.2111 34.6325C21.1719 36.5702 24.3264 36.9013 27.6443 35.7029C27.7704 35.6572 27.8915 35.5942 28.0206 35.5597C28.4937 35.4338 28.9356 35.6542 29.0879 36.0817C29.2453 36.5235 29.0799 37.0028 28.6098 37.1633C27.7069 37.471 26.7909 37.7534 25.8608 37.9616C25.2283 38.1048 24.5625 38.1027 24.1781 38.1393Z" fill="#31B7BC"/>
<path d="M35.976 25.8761C35.9891 27.6138 35.6844 29.1463 35.0751 30.6138C34.8018 31.2719 34.1158 31.4537 33.6588 31.0007C33.3218 30.6676 33.3582 30.2827 33.5196 29.8755C34.0492 28.539 34.2984 27.1527 34.252 25.7116C34.1682 23.1015 33.2361 20.8429 31.4929 18.9173C31.4132 18.83 31.3244 18.7508 31.2488 18.6614C30.9098 18.2602 30.9078 17.7626 31.2397 17.4264C31.5958 17.0669 32.0901 17.073 32.4926 17.4731C33.5327 18.506 34.3407 19.7044 34.9339 21.047C35.633 22.6293 35.9972 24.2847 35.976 25.8761Z" fill="#31B7BC"/>
</svg>
