<svg width="32" height="42" viewBox="0 0 32 42" fill="none" xmlns="http://www.w3.org/2000/svg">
<path d="M31.9972 23.9788C31.9972 28.8834 31.9953 33.789 32 38.6936C32.0009 39.5326 31.8257 40.306 31.2617 40.9538C30.6012 41.7122 29.7552 42.0037 28.7611 42C25.0294 41.9868 21.2986 41.9943 17.5669 41.9943C12.7736 41.9943 7.98132 41.9962 3.18808 41.9925C1.64967 41.9915 0.496335 41.1713 0.130002 39.8045C0.0381847 39.4623 0.00445589 39.0958 0.00445589 38.7396C-0.00116558 28.9143 -0.000228673 19.0891 0.000708239 9.26294C0.000708239 7.24746 1.25804 5.99974 3.28177 5.99599C3.813 5.99505 4.34329 5.98662 4.87452 5.99693C5.56409 6.01099 5.98758 6.39721 5.99132 6.9953C5.99507 7.59431 5.57159 7.99366 4.89045 8.00772C4.3283 8.01991 3.76616 8.00772 3.20401 8.01147C2.3561 8.0171 2.01601 8.35551 2.01601 9.20951C2.01413 14.521 2.01507 19.8316 2.01507 25.143C2.01507 29.6577 2.01601 34.1724 2.01601 38.6861C2.01601 39.6901 2.32519 40.0004 3.32862 40.0004C11.7908 40.0004 20.2521 40.0004 28.7142 39.9985C29.6549 39.9985 29.9791 39.6761 29.9791 38.7321C29.981 28.9087 29.9819 19.0826 29.981 9.25732C29.981 8.33676 29.6596 8.01803 28.7461 8.01428C28.2149 8.01147 27.6846 8.01803 27.1534 8.01147C26.4394 8.00303 25.9981 7.61025 26.0038 6.99717C26.0094 6.38784 26.4497 6.00443 27.1674 5.99693C27.7136 5.9913 28.2598 5.99412 28.807 5.99693C30.708 6.00724 31.9878 7.26996 31.9934 9.17014C32.0028 12.7943 31.9972 16.4184 31.9972 20.0425C31.9972 21.354 31.9972 22.6664 31.9972 23.9788Z" fill="#31B7BC"/>
<path d="M15.9929 11.9965C13.4182 11.9965 10.8445 11.9965 8.26989 11.9965C7.33673 11.9965 6.98351 11.6637 7.01068 10.7291C7.03973 9.73447 6.98445 8.71173 7.20275 7.75462C7.62342 5.90412 8.86483 4.73233 10.6834 4.19612C10.9673 4.11269 11.1097 3.99364 11.1921 3.69647C11.7983 1.48694 13.7827 -0.0185755 16.0266 0.000173149C18.2733 0.0189218 20.1949 1.50007 20.8095 3.70491C20.8845 3.97395 20.996 4.11175 21.278 4.18675C23.4535 4.76608 24.9404 6.66626 24.9881 8.91141C25.0022 9.56667 24.9975 10.2229 24.991 10.8781C24.9844 11.6215 24.6134 11.9918 23.8564 11.9937C21.2358 11.9993 18.6143 11.9956 15.9929 11.9965ZM22.985 9.97821C22.985 9.56667 23.0169 9.17764 22.9794 8.79517C22.8295 7.25028 21.7774 6.1966 20.2343 6.01568C19.2477 5.90037 19.0697 5.71945 18.9863 4.74827C18.8532 3.19963 17.565 2.02034 16.0041 2.01753C14.4441 2.01472 13.1446 3.19494 13.0097 4.73608C12.9235 5.72039 12.7446 5.92194 11.7749 6.01099C10.1006 6.16473 8.62405 7.60556 9.06627 9.97914C13.6946 9.9782 18.323 9.97821 22.985 9.97821Z" fill="#31B7BC"/>
<path d="M19.6581 17.7476C19.6581 18.6954 19.6759 19.5063 19.6552 20.3162C19.4941 26.7892 13.7949 32.2863 7.32549 32.2244C6.85703 32.2197 6.49257 32.0594 6.30706 31.6245C6.14123 31.2364 6.16371 30.8089 6.50569 30.552C6.75678 30.3636 7.12124 30.2539 7.44073 30.2399C9.9985 30.1255 12.2639 29.2818 14.1715 27.5635C16.4079 25.549 17.5612 23.0141 17.6737 20.0087C17.6999 19.2972 17.6774 18.5838 17.6774 17.7767C17.1134 18.1995 16.6215 18.5717 16.1268 18.9401C15.5385 19.3778 14.9285 19.3328 14.5669 18.8285C14.223 18.3485 14.3654 17.7701 14.936 17.3342C15.9535 16.5571 16.971 15.7819 17.9885 15.0047C18.4138 14.6794 18.8832 14.6429 19.2824 14.9428C20.3804 15.7678 21.47 16.604 22.5606 17.4392C22.9363 17.727 23.0628 18.1132 22.926 18.5623C22.8051 18.9569 22.51 19.2213 22.1081 19.226C21.8354 19.2297 21.5244 19.121 21.293 18.9682C20.7636 18.6195 20.2717 18.2126 19.6581 17.7476Z" fill="#31B7BC"/>
<path d="M13.0013 22.8323C13.0069 25.1206 11.1575 26.9739 8.87326 26.971C6.61531 26.9673 4.76491 25.1196 4.75835 22.8613C4.75085 20.5824 6.61343 18.717 8.892 18.7226C11.1556 18.7263 12.9966 20.5674 13.0013 22.8323ZM6.75865 22.791C6.71275 23.9319 7.64685 24.9228 8.81611 24.9753C9.9554 25.0259 10.9504 24.0959 11.0104 22.926C11.0694 21.7692 10.1072 20.7502 8.9276 20.7184C7.77614 20.6874 6.8055 21.6155 6.75865 22.791Z" fill="#31B7BC"/>
<path d="M20.2624 32.0857C19.585 31.4098 18.917 30.7592 18.2696 30.0889C18.1028 29.9165 17.9491 29.6962 17.8807 29.4702C17.7524 29.0409 17.9651 28.6041 18.337 28.3894C18.7146 28.1719 19.1971 28.2206 19.5447 28.5544C20.1303 29.1159 20.698 29.6962 21.2705 30.2708C21.3913 30.3917 21.5 30.5249 21.6715 30.717C22.1502 30.2305 22.5925 29.7796 23.0366 29.3296C23.2886 29.0746 23.5378 28.815 23.8001 28.5703C24.2377 28.1616 24.8354 28.1578 25.2261 28.5478C25.6234 28.9443 25.6346 29.5377 25.2093 29.9736C24.5234 30.6767 23.8123 31.3564 23.074 32.0829C23.7655 32.7709 24.4494 33.4075 25.0743 34.0974C25.2955 34.3411 25.465 34.7058 25.496 35.0311C25.5344 35.4239 25.258 35.7276 24.871 35.8738C24.4616 36.0285 24.099 35.9217 23.7964 35.6273C23.2933 35.137 22.7986 34.6392 22.3076 34.1358C22.1118 33.9352 21.9385 33.714 21.7108 33.4525C20.9829 34.1912 20.342 34.8905 19.6421 35.5261C19.4023 35.7435 18.9994 35.9367 18.7062 35.8954C18.4148 35.8542 18.0822 35.5542 17.921 35.2776C17.7271 34.9449 17.833 34.5446 18.1271 34.2474C18.709 33.6596 19.2955 33.0756 19.8782 32.4897C19.9991 32.3678 20.1134 32.2422 20.2624 32.0857Z" fill="#31B7BC"/>
</svg>
