<svg width="42" height="40" viewBox="0 0 42 40" fill="none" xmlns="http://www.w3.org/2000/svg">
<path d="M37.4906 0C38.0145 0.151124 38.311 0.506764 38.5385 0.989096C39.5992 3.2451 40.6886 5.48753 41.7659 7.7354C42.2171 8.67563 42.0321 9.1661 41.0707 9.61224C36.3451 11.8031 31.6203 13.9976 26.8901 16.1794C26.6074 16.3097 26.5172 16.459 26.5218 16.7576C26.5393 17.934 26.5328 19.1104 26.5282 20.2869C26.5245 21.1221 26.1037 21.533 25.2529 21.5366C24.3827 21.5402 23.5135 21.5375 22.5797 21.5375C22.6718 21.7447 22.7326 21.894 22.8035 22.0388C25.4389 27.4105 28.0752 32.7822 30.7143 38.153C30.892 38.5141 31.0918 38.9041 30.845 39.2643C30.6452 39.5557 30.3091 39.7575 30.0329 39.9991C29.9104 39.9991 29.787 39.9991 29.6645 39.9991C29.1581 39.8172 28.8781 39.4426 28.6498 38.9729C26.6 34.7659 24.5328 30.566 22.4692 26.3644C22.3864 26.1952 22.2915 26.0314 22.2022 25.8649C22.1718 25.8703 22.1424 25.8748 22.112 25.8803C22.112 26.0368 22.112 26.1943 22.112 26.3508C22.112 30.4041 22.112 34.4582 22.112 38.5114C22.112 39.4426 21.9591 39.667 21.1009 39.9991C21.0392 39.9991 20.9784 39.9991 20.9167 39.9991C20.0585 39.6688 19.9057 39.4444 19.9057 38.5123C19.9057 34.4591 19.9057 30.4059 19.9057 26.3527C19.9057 26.1961 19.9057 26.0386 19.9057 25.8821C19.7381 26.0052 19.6607 26.1445 19.5908 26.2866C17.5143 30.5145 15.4323 34.7396 13.3688 38.9738C13.1395 39.4435 12.8587 39.8172 12.3531 40C12.261 40 12.169 40 12.0769 40C11.0428 39.5982 10.8448 39.096 11.331 38.1033C13.9599 32.7469 16.5889 27.3915 19.2169 22.0352C19.2878 21.8904 19.3495 21.742 19.4407 21.5384C18.5631 21.5384 17.7546 21.5384 16.9452 21.5384C15.9149 21.5384 15.6156 21.2886 15.4415 20.248C14.5456 20.6597 13.6552 21.0533 12.7795 21.4769C12.2049 21.7547 11.668 21.894 11.1174 21.4217C11.041 21.3565 10.8034 21.4198 10.668 21.4823C8.39268 22.5284 6.12194 23.5835 3.84935 24.636C3.66979 24.7192 3.49207 24.8115 3.30607 24.8794C2.74805 25.0812 2.19648 24.9084 1.93405 24.3844C1.30605 23.1284 0.697388 21.8624 0.111747 20.5864C-0.169103 19.9738 0.0905679 19.4281 0.765529 19.1132C2.59151 18.2607 4.42302 17.4173 6.25177 16.5703C6.83373 16.3006 7.42029 16.04 7.99304 15.754C8.11643 15.6925 8.27481 15.5359 8.27481 15.4237C8.27389 14.8201 8.61183 14.4971 9.12749 14.26C11.8319 13.0157 14.5327 11.7606 17.2344 10.509C17.3845 10.4393 17.5318 10.3624 17.6718 10.2927C17.5263 9.33804 17.6801 9.04936 18.5585 8.64214C24.5991 5.84317 30.6397 3.04602 36.6802 0.248858C36.858 0.166508 37.0366 0.085064 37.2152 0.00361975C37.3064 0 37.3985 0 37.4906 0ZM36.8414 2.57273C31.2483 5.16447 25.7262 7.72363 20.181 10.2927C21.0585 12.1207 21.9066 13.8872 22.7722 15.6898C28.345 13.1071 33.88 10.5416 39.4317 7.96797C38.5578 6.14633 37.7097 4.37989 36.8414 2.57273ZM10.854 15.8653C11.4028 17.0074 11.924 18.0924 12.4636 19.2136C15.0787 18.0019 17.6589 16.8056 20.2768 15.5921C19.7307 14.4564 19.2059 13.3641 18.6681 12.2456C16.0392 13.4636 13.4673 14.6554 10.854 15.8653ZM9.2297 17.5938C6.99579 18.629 4.80424 19.6453 2.58507 20.6733C2.87697 21.2787 3.14861 21.8425 3.42946 22.4261C5.67718 21.3827 7.86781 20.3665 10.075 19.343C9.78127 18.7349 9.51515 18.1829 9.2297 17.5938ZM21.1635 17.5829C19.9876 18.134 18.8348 18.6734 17.681 19.2136C17.6985 19.257 17.716 19.2996 17.7335 19.343C19.913 19.343 22.0935 19.343 24.2897 19.343C24.2897 18.6969 24.2897 18.0779 24.2897 17.3983C23.8413 17.6037 23.4425 17.7856 23.0438 17.9693C22.1681 18.3738 21.8458 18.3132 21.1635 17.5829Z" fill="#31B7BC"/>
</svg>
