<svg width="55" height="55" viewBox="0 0 55 55" fill="none" xmlns="http://www.w3.org/2000/svg">
<path d="M55 25.5664C55 26.8555 55 28.1445 55 29.4336C54.9678 29.584 54.9141 29.7451 54.8926 29.8955C54.5381 34.0957 53.3027 38.0273 51.0898 41.6045C46.7285 48.6729 40.4658 53.0342 32.2803 54.5811C31.335 54.7637 30.3789 54.8604 29.4336 55C28.1445 55 26.8555 55 25.5664 55C25.4268 54.9678 25.2979 54.9141 25.1582 54.9033C20.1846 54.4844 15.6514 52.8408 11.6016 49.9297C5.53223 45.5469 1.7832 39.6602 0.418945 32.291C0.24707 31.3457 0.139648 30.3896 0 29.4336C0 28.1445 0 26.8555 0 25.5664C0.0322266 25.416 0.0859375 25.2549 0.107422 25.1045C0.333008 22.2148 0.988281 19.4219 2.18066 16.7793C6.21973 7.83105 13.0518 2.33105 22.7197 0.418945C23.665 0.236328 24.6211 0.139648 25.5664 0C26.8555 0 28.1445 0 29.4336 0C29.5732 0.0322266 29.7021 0.0859375 29.8418 0.0966797C34.1924 0.451172 38.2422 1.76172 41.916 4.09277C48.8125 8.46484 53.0557 14.6631 54.5703 22.709C54.7529 23.6543 54.8604 24.6104 55 25.5664ZM51.2832 24.0518C50.4883 18.9492 48.3613 14.6094 44.8594 10.8926C43.5166 12.2354 42.2168 13.5459 40.9707 14.792C40.1221 13.9541 39.3271 13.1484 38.4248 12.2568C39.6602 11.0322 40.9277 9.77539 42.2061 8.50781C38.3818 5.5752 34.0742 3.9209 29.1973 3.53418C29.1973 5.24219 29.1973 6.89648 29.1973 8.56152C28.0264 8.56152 26.9092 8.56152 25.7383 8.56152C25.7383 6.86426 25.7383 5.2207 25.7383 3.53418C20.8828 3.94238 16.5645 5.58594 12.6758 8.60449C13.9971 9.9043 15.2646 11.1504 16.4893 12.3535C15.6621 13.1914 14.8672 13.9863 14.0293 14.8242C12.7617 13.5459 11.4727 12.2246 10.1406 10.8818C6.61719 14.6201 4.47949 18.9707 3.70605 24.084C5.94043 24.084 8.09961 24.084 10.2588 24.084C10.2588 25.2549 10.2588 26.3721 10.2588 27.5215C7.9707 27.5215 5.71484 27.5215 3.4375 27.5215C3.4375 27.8223 3.41602 28.0908 3.4375 28.3486C3.59863 29.7344 3.68457 31.1309 3.97461 32.4951C5.23145 38.3389 8.31445 43.0439 13.0303 46.6963C13.2773 46.8896 13.46 46.9004 13.7393 46.7393C17.0693 44.8271 20.6465 43.6885 24.4707 43.2803C28.875 42.8076 33.1396 43.3232 37.2754 44.8916C38.7686 45.4609 40.1973 46.1914 41.7334 46.8896C48.0176 42.0449 51.3477 35.6211 51.5732 27.5107C49.2422 27.5107 46.9863 27.5107 44.7197 27.5107C44.7197 26.3398 44.7197 25.2227 44.7197 24.0732C46.9111 24.0518 49.0488 24.0518 51.2832 24.0518ZM38.2529 49.0166C34.751 47.3086 31.2061 46.5244 27.5 46.5244C23.7832 46.5244 20.2275 47.3086 16.7686 49.0166C23.9658 52.3896 31.0342 52.3896 38.2529 49.0166Z" fill="#31B7BC"/>
<path d="M27.5107 41.2501C23.0957 41.2609 19.873 37.2648 20.7861 32.8712C21.9033 27.5001 23.5791 22.2794 25.1904 17.048C25.3945 16.382 25.5986 15.7159 25.8135 15.0607C26.0605 14.2872 26.6513 13.8683 27.4677 13.8575C28.3164 13.8468 28.9394 14.255 29.1865 15.0392C30.959 20.7433 32.7851 26.4366 34.1064 32.2697C34.708 34.9445 34.289 37.3185 32.3017 39.2843C30.9804 40.6056 29.3691 41.2394 27.5107 41.2501ZM27.5537 21.4093C27.4463 21.5382 27.414 21.5597 27.4033 21.5919C26.3935 25.1798 25.373 28.7677 24.4062 32.3771C24.1699 33.2579 23.9336 34.171 24.1484 35.1271C24.5351 36.8566 26.2969 38.0919 28.0049 37.7697C29.9492 37.4044 31.249 35.6964 30.8515 33.8488C30.3896 31.6681 29.831 29.5089 29.2617 27.3497C28.7461 25.3839 28.1445 23.4396 27.5537 21.4093Z" fill="#31B7BC"/>
</svg>
