<svg width="68" height="76" viewBox="0 0 68 76" fill="none" xmlns="http://www.w3.org/2000/svg">
<path d="M35.3935 3.13003C35.3935 3.54378 35.3935 3.86954 35.3935 4.19375C35.3935 9.44129 35.3935 14.6904 35.3935 19.9379C35.3935 20.1433 35.4013 20.3501 35.3888 20.5555C35.3498 21.2734 34.8747 21.7581 34.2281 21.7458C33.5862 21.7334 33.1064 21.244 33.1002 20.52C33.083 18.6673 33.0908 16.8147 33.0908 14.9636C33.0908 11.3109 33.0924 7.65815 33.0939 4.00385C33.0939 3.75529 33.0939 3.50673 33.0939 3.12231C32.706 3.32301 32.4365 3.45733 32.1716 3.59936C24.6623 7.63499 16.9737 11.2723 8.78511 13.7687C7.07914 14.289 5.33579 14.695 3.59711 15.1026C3.12349 15.2138 2.94432 15.3975 2.95367 15.8653C2.9786 17.3304 2.97704 18.7955 2.9895 20.2606C2.99729 21.1915 2.61404 21.7134 1.89582 21.7442C1.19318 21.7736 0.689957 21.2348 0.696189 20.3455C0.713327 18.3184 0.758508 16.2929 0.822384 14.2674C0.842637 13.6236 1.23368 13.2546 1.88335 13.1249C11.834 11.1519 20.8873 6.9032 29.7848 2.26856C31.0016 1.63558 32.2028 0.971729 33.3821 0.273909C34.0162 -0.101247 34.56 -0.0827207 35.1925 0.27854C40.9071 3.53761 46.7962 6.44931 52.9065 8.90866C57.2578 10.6609 61.6809 12.1924 66.3174 13.0446C67.4407 13.2515 67.7429 13.5526 67.7445 14.6966C67.7491 16.6758 67.6899 18.655 67.6261 20.6342C67.6042 21.2981 67.0745 21.7597 66.4654 21.7458C65.8219 21.7334 65.3327 21.2363 65.3452 20.5184C65.3686 19.0533 65.4138 17.5867 65.487 16.1231C65.5197 15.4901 65.3577 15.1921 64.6519 15.0393C57.3093 13.4491 50.4433 10.5683 43.7176 7.33239C41.0831 6.06489 38.5141 4.66462 35.9138 3.32919C35.7845 3.26126 35.6396 3.22266 35.3935 3.13003Z" fill="#31B7BC"/>
<path d="M35.6427 72.7592C37.5964 71.2787 39.5984 69.8537 41.496 68.3052C46.4394 64.2711 50.6599 59.5809 54.17 54.2685C54.3538 53.9906 54.533 53.6942 54.7745 53.4704C55.2076 53.0705 55.7856 52.9887 56.1688 53.4163C56.4446 53.722 56.5194 54.2516 56.5677 54.6931C56.591 54.9 56.3511 55.1439 56.2109 55.3585C50.7284 63.7123 43.6319 70.4249 35.1317 75.7111C34.5989 76.043 34.0988 76.1187 33.5379 75.7806C26.0971 71.2972 19.6067 65.7579 14.3595 58.8383C13.5182 57.7283 12.7314 56.5781 11.9369 55.4357C11.4103 54.6792 11.4648 54.0045 12.0428 53.6001C12.6473 53.1786 13.3328 53.3808 13.8609 54.1775C18.4429 61.0816 24.2307 66.8031 31.0888 71.4778C31.6996 71.8947 32.3243 72.2899 33.0939 72.7932C33.0939 72.3146 33.0939 72.0166 33.0939 71.7202C33.0939 66.678 33.0799 61.6343 33.1204 56.592C33.1235 56.1737 33.3946 55.6441 33.7187 55.377C33.9461 55.1902 34.616 55.2118 34.8342 55.4125C35.1426 55.6966 35.3654 56.2308 35.3701 56.66C35.409 60.8268 35.3935 64.9952 35.3935 69.1636C35.3935 70.3122 35.3935 71.4609 35.3935 72.6079C35.4776 72.6589 35.5602 72.7098 35.6427 72.7592Z" fill="#31B7BC"/>
<path d="M34.0147 26.8667C23.1884 26.8667 12.3622 26.8652 1.53593 26.8714C0.900282 26.8714 0.319163 26.8127 0.076122 26.1241C-0.216774 25.292 0.361228 24.5973 1.36923 24.5911C3.60178 24.5772 5.83433 24.5849 8.06689 24.5849C27.4089 24.5849 46.751 24.5865 66.093 24.588C66.3002 24.588 66.509 24.5818 66.7162 24.5896C67.5139 24.6173 67.9968 25.0496 68 25.7335C68.0046 26.4314 67.5435 26.8606 66.7256 26.8636C63.8963 26.8745 61.0655 26.8698 58.2362 26.8714C50.1613 26.8714 42.088 26.8714 34.0131 26.8714C34.0147 26.8683 34.0147 26.8667 34.0147 26.8667Z" fill="#31B7BC"/>
<path d="M34.0848 49.583C42.8062 49.5845 51.5261 49.586 60.2476 49.5783C60.8848 49.5783 61.4581 49.6416 61.7152 50.3178C62.0299 51.1469 61.4565 51.8524 60.4532 51.857C57.5975 51.8679 54.7433 51.8632 51.8876 51.8632C37.4297 51.8632 22.9734 51.8632 8.51558 51.8632C8.15258 51.8632 7.78801 51.874 7.42501 51.8555C6.68654 51.8185 6.22382 51.363 6.23317 50.7053C6.24408 50.0399 6.70056 49.5938 7.45149 49.5891C9.63108 49.5752 11.8122 49.583 13.9918 49.583C20.6926 49.5814 27.3887 49.5814 34.0848 49.583Z" fill="#31B7BC"/>
<path d="M22.0246 46.2096C18.9804 46.2143 16.9706 44.7322 16.469 42.2095C16.3537 41.629 16.3428 41.0671 16.9987 40.7552C17.6047 40.4665 18.1921 40.7706 18.4242 41.4901C19.2374 44.0143 21.4638 44.9792 23.9362 43.8738C24.8835 43.4508 25.3493 42.7421 25.3493 41.6908C25.3493 40.6533 24.8991 39.9617 23.9144 39.6514C22.7818 39.2932 21.6336 38.9829 20.4916 38.6525C20.3919 38.6232 20.2906 38.6031 20.1909 38.5738C17.5455 37.8327 16.6388 36.6053 16.8694 34.0781C17.0766 31.8132 18.7405 30.1953 21.1101 30.0008C22.5092 29.885 23.8428 30.1119 25.0658 30.8576C26.1626 31.5276 26.7219 32.5265 26.9462 33.74C27.0677 34.3976 26.7343 34.9349 26.1641 35.0461C25.4724 35.1804 25.1 34.8284 24.8882 34.2124C24.1995 32.2069 21.9452 31.3146 20.0616 32.3273C19.1782 32.8028 18.8293 33.6072 18.8682 34.586C18.9056 35.4891 19.4524 35.9832 20.2673 36.2209C21.484 36.576 22.707 36.911 23.93 37.2414C26.8465 38.0272 28.0461 40.0975 27.2531 42.9923C26.7935 44.6704 25.1608 45.8962 23.042 46.1402C22.6556 46.1834 22.2646 46.1927 22.0246 46.2096Z" fill="#31B7BC"/>
<path d="M35.0055 46.2096C31.8585 46.1973 29.9017 44.6797 29.4421 42.0227C29.319 41.3156 29.6306 40.7521 30.2429 40.6688C30.9346 40.5746 31.2945 40.9729 31.4659 41.5904C32.181 44.1718 35.4277 45.1768 37.5653 43.5141C38.5701 42.7313 38.8397 40.3446 37.1041 39.7316C35.8873 39.3009 34.6301 38.986 33.3899 38.6201C33.3152 38.5985 33.2373 38.5923 33.1625 38.5707C30.5903 37.8528 29.6181 36.5575 29.8347 34.1336C30.0372 31.8518 31.7712 30.1706 34.1237 29.9977C35.6381 29.8865 37.0698 30.1412 38.3333 31.0429C39.2977 31.7314 39.7978 32.6855 39.9302 33.8388C40.0003 34.4517 39.7869 34.9195 39.131 35.0461C38.4922 35.1696 38.1168 34.8623 37.908 34.2571C37.2085 32.2254 35.2657 31.3933 33.2419 32.2393C32.4037 32.5898 31.8195 33.513 31.8398 34.4578C31.8585 35.3502 32.2666 35.8983 33.2933 36.2209C34.5023 36.6007 35.7238 36.9496 36.9561 37.2399C40.5238 38.0797 40.9507 40.959 40.0611 43.4477C39.4083 45.2756 37.7398 45.8113 36.0089 46.1417C35.624 46.2127 35.2268 46.1957 35.0055 46.2096Z" fill="#31B7BC"/>
<path d="M44.9765 43.7225C46.2291 43.7225 47.3897 43.7225 48.5504 43.7225C49.3543 43.7225 50.1598 43.7024 50.9637 43.7302C51.6102 43.7518 51.9514 44.1594 52.0106 44.7646C52.0667 45.3389 51.5775 45.8314 50.9341 45.836C48.418 45.8515 45.9003 45.8329 43.3842 45.8515C42.7595 45.8561 42.8296 45.4562 42.8296 45.0749C42.8265 42.0412 42.8265 39.0076 42.8265 35.9739C42.8265 34.6107 42.8249 33.249 42.8327 31.8858C42.8343 31.6295 42.8343 31.3655 42.8966 31.12C43.0337 30.5812 43.4403 30.2045 43.9622 30.3342C44.3299 30.4253 44.6773 30.8221 44.9032 31.1664C45.0497 31.3902 44.9749 31.7654 44.9749 32.0726C44.978 35.4922 44.9765 38.9119 44.9765 42.3299C44.9765 42.7622 44.9765 43.196 44.9765 43.7225Z" fill="#31B7BC"/>
</svg>
