<svg width="42" height="42" viewBox="0 0 42 42" fill="none" xmlns="http://www.w3.org/2000/svg">
<path d="M41.0914 20.2253C41.0598 19.9882 41.0282 19.7353 41.0045 19.4982C40.9412 18.9766 40.878 18.4391 40.7753 17.9175C40.0402 14.2107 38.586 11.0177 36.4599 8.43324C34.3339 5.84878 31.4886 3.80967 27.9952 2.35541C26.2564 1.63619 24.3122 1.19359 22.2177 1.04342C22.1466 1.03552 22.0755 1.01971 21.9964 1.0039C21.9569 0.996001 21.9095 0.980194 21.87 0.97229H19.4041C19.159 1.0039 18.914 1.03552 18.6769 1.06713C18.1553 1.13036 17.6178 1.19359 17.0883 1.29634C13.5475 1.98394 10.4651 3.35126 7.9281 5.35086C5.39896 7.34255 3.35984 10.0219 1.85026 13.3018C0.94926 15.2698 0.403915 17.4591 0.230036 19.8223C0.222133 19.9013 0.206326 19.9882 0.182615 20.0752C0.174712 20.1226 0.158905 20.17 0.151001 20.2174V22.6596C0.182615 22.8967 0.214229 23.1497 0.245844 23.3868C0.309072 23.9084 0.3723 24.4458 0.475047 24.9675C1.77123 31.7408 5.57284 36.7596 11.7534 39.8815C13.9506 40.988 16.4007 41.6519 19.0326 41.8416C19.1037 41.8495 19.1749 41.8653 19.2539 41.8811C19.2934 41.889 19.3408 41.9048 19.3803 41.9127L19.4041 41.9206H21.8304C22.0675 41.889 22.3126 41.8574 22.5418 41.8337C23.0555 41.7704 23.585 41.7072 24.0988 41.6045C27.8292 40.8694 31.0381 39.4073 33.6384 37.2654C36.2307 35.1314 38.2777 32.2625 39.7241 28.7375C40.4275 27.0145 40.8464 25.1651 41.0045 23.0706C41.0124 22.9916 41.0282 22.9046 41.0519 22.8177C41.0598 22.7703 41.0756 22.7229 41.0835 22.6754L41.0914 22.6517V20.2253ZM19.5463 37.8345V39.6523C15.3495 39.4942 11.129 37.6685 7.9439 34.6177C4.58489 31.4089 2.6011 27.133 2.33238 22.5569H7.67518C7.64357 22.628 7.61986 22.6992 7.58824 22.7703C7.43808 23.1655 7.28 23.5685 7.16145 23.9795C6.61611 25.908 6.94015 27.4571 8.14939 28.7296C9.47719 30.1285 11.5479 30.5 13.2946 29.6464C15.0571 28.7849 16.0529 26.888 15.721 25.0228C15.6024 24.3668 15.4128 23.7187 15.231 23.0943C15.1757 22.9125 15.1203 22.7229 15.0729 22.5411H19.5384V24.6909C19.5384 26.3348 19.5384 28.0341 19.5384 29.7096C19.5384 30.1443 19.6807 30.5 19.9494 30.7134C20.1786 30.903 20.4868 30.9663 20.8109 30.903C21.0638 30.8556 21.2851 30.6896 21.3957 30.6027C22.3284 29.8203 23.3558 29.3618 24.5493 29.2117C25.1736 29.1326 25.8138 29.3144 26.3118 29.7254C26.8018 30.1285 27.0863 30.6896 27.1258 31.3061C27.1653 32.0016 26.9203 32.6655 26.454 33.1397C26.0193 33.5823 25.4345 33.8116 24.8101 33.7799C23.6087 33.7246 22.5101 33.282 21.5301 32.4679C21.214 32.2071 20.7793 31.9384 20.2023 32.1992C19.6095 32.4679 19.5463 33.0054 19.5463 33.3927C19.5463 34.8706 19.5463 36.3723 19.5463 37.8345ZM19.5068 8.46486C19.3566 8.41744 19.2065 8.37002 19.0563 8.31469C18.503 8.13291 17.934 7.94322 17.3491 7.83257C16.0609 7.57176 14.7963 7.83257 13.7925 8.5676C12.7809 9.31054 12.1328 10.4486 11.9826 11.7764C11.8324 13.0884 12.3225 14.3925 13.3183 15.3568C14.3221 16.3289 15.6499 16.7715 16.9619 16.5739C17.9498 16.4237 18.7876 16.1787 19.5226 15.8152V20.3597H17.6969C16.2505 20.3597 14.7568 20.3597 13.2867 20.3597C12.8362 20.3597 12.3383 20.4308 12.0696 20.9762C11.8008 21.5215 12.0617 21.9562 12.3541 22.304C13.1286 23.2445 13.5633 24.351 13.6503 25.5998C13.6898 26.1451 13.4843 26.7142 13.0891 27.1647C12.6939 27.6152 12.1565 27.8997 11.6112 27.9392C10.9235 27.9866 10.2517 27.7653 9.76962 27.3306C9.35073 26.9592 9.10573 26.4533 9.08202 25.908C9.02669 24.6434 9.46139 23.4658 10.4098 22.304C10.6153 22.0511 10.9947 21.5927 10.7022 20.9762C10.4335 20.4229 9.91979 20.3518 9.5009 20.3518H9.493C7.77002 20.3597 6.01544 20.3597 4.31617 20.3597H2.364C2.49836 16.1471 4.33988 11.9108 7.43808 8.70196C10.6785 5.35086 14.9544 3.38287 19.5068 3.16157V8.46486ZM21.7277 35.3764C21.8779 35.4239 22.028 35.4713 22.1703 35.5187C22.7156 35.7005 23.2768 35.8823 23.8458 36.0008C25.0472 36.2537 26.2564 36.0404 27.2523 35.4081C28.2402 34.7758 28.9278 33.7799 29.1807 32.6023C29.489 31.1876 29.1017 29.757 28.1217 28.6821C27.1337 27.5994 25.7348 27.0856 24.2884 27.2753C23.3558 27.3939 22.5101 27.6389 21.7277 28.0261V22.5332C21.783 22.5332 21.8383 22.5253 21.8937 22.5253C22.771 22.5253 23.6483 22.5253 24.5256 22.5253C25.9798 22.5253 27.4341 22.5253 28.8883 22.5253C29.323 22.5253 29.6787 22.383 29.9 22.1222C30.0897 21.893 30.1608 21.6006 30.0976 21.2686C30.058 21.071 29.9553 20.8576 29.7972 20.6758C28.9911 19.7353 28.5248 18.6525 28.3746 17.3801C28.2481 16.3131 29.1175 15.1908 30.2319 14.9774C31.4016 14.7482 32.5714 15.4753 32.8875 16.6292C33.0535 17.222 32.9191 17.8148 32.7769 18.3759C32.5556 19.2058 32.1525 19.9645 31.5755 20.6284C31.3384 20.8971 31.0618 21.3239 31.3068 21.8851C31.5597 22.462 32.0972 22.5332 32.4686 22.5332C33.9624 22.5332 35.4562 22.5332 36.9499 22.5332H38.7915C38.4911 26.8722 36.9104 30.6422 34.0968 33.7404C32.4291 35.5819 30.5164 37.0204 28.4062 38.0162C26.3908 38.9726 24.1462 39.5574 21.7198 39.755V35.3764H21.7277ZM34.6974 19.9013C34.8713 19.3639 35.061 18.8106 35.1716 18.2495C35.4483 16.9138 35.1954 15.6255 34.4524 14.6059C33.7095 13.5864 32.5635 12.9462 31.212 12.796C29.9316 12.6537 28.6433 13.1438 27.687 14.1238C26.7227 15.1117 26.2722 16.4158 26.4382 17.6962C26.5726 18.7 26.8255 19.5693 27.2049 20.336H21.6961V18.4787C21.6961 17.0402 21.6961 15.5543 21.6961 14.0922C21.6961 13.6654 21.625 13.1517 21.0717 12.8829C20.4552 12.5905 19.9731 12.9857 19.7439 13.1754C18.7955 13.9657 17.6732 14.4004 16.4086 14.4716C15.8712 14.5032 15.3179 14.2977 14.8753 13.9025C14.4169 13.4915 14.1403 12.9225 14.1087 12.3455C14.0771 11.6816 14.3063 11.0335 14.741 10.5672C15.1282 10.1483 15.642 9.91121 16.1873 9.8954C17.4756 9.86379 18.6611 10.3143 19.815 11.2864C20.0759 11.5077 20.4947 11.7764 21.0401 11.5393C21.4827 11.3418 21.704 10.9624 21.6961 10.3854C21.6961 8.68616 21.6961 6.98689 21.6961 5.28763V3.14577C25.6004 3.38287 29.0622 4.71067 32.0023 7.06593C34.1284 8.7731 35.796 10.7806 36.942 13.041C38.0485 15.1987 38.7124 17.6567 38.9337 20.336H34.5473C34.6026 20.1937 34.65 20.0436 34.6974 19.9013Z" fill="#31B7BC"/>
</svg>
