<svg width="76" height="76" viewBox="0 0 76 76" fill="none" xmlns="http://www.w3.org/2000/svg">
<path d="M32.4343 58.3626C34.5623 62.263 36.6383 66.0654 38.7142 69.8693C38.8368 70.093 39.0421 70.3182 39.0497 70.548C39.062 70.9984 39.085 71.5223 38.8781 71.887C38.6085 72.3619 38.0539 72.4415 37.5161 72.2286C35.9764 71.6173 34.4382 71.0061 32.7897 70.3519C32.5308 71.6112 32.2765 72.8414 32.0237 74.0716C31.967 74.3458 31.9134 74.6216 31.8613 74.8973C31.7418 75.5162 31.3894 75.9207 30.7521 75.9911C30.1454 76.0586 29.7394 75.7353 29.4759 75.2083C28.4387 73.134 27.3999 71.0597 26.3627 68.9854C25.6105 67.481 24.8843 65.9628 24.0892 64.4798C23.9099 64.1458 23.5345 63.8517 23.1822 63.6847C20.855 62.5893 18.514 62.5204 16.1424 63.6127C15.6567 63.8364 15.2936 64.0416 15.0454 64.5472C13.3341 68.0233 11.586 71.4825 9.86243 74.9525C9.55908 75.5637 9.20364 76.0831 8.43608 75.9881C7.67771 75.8946 7.42492 75.3401 7.29776 74.6522C7.03884 73.2504 6.73396 71.8578 6.42755 70.3611C5.69982 70.646 5.02724 70.905 4.3562 71.1715C3.55187 71.4917 2.74447 71.8088 1.94627 72.1459C1.35642 72.394 0.792623 72.4339 0.326877 71.9298C-0.169511 71.3921 -0.0331578 70.8299 0.290107 70.2416C2.31396 66.5541 4.32249 62.8574 6.33409 59.1638C6.46585 58.9218 6.58841 58.6751 6.74775 58.3672C6.3586 58.2186 6.02002 58.0485 5.66152 57.9581C4.80203 57.7406 4.46957 57.1829 4.46957 56.3327C4.4711 55.006 4.47417 53.6762 4.3991 52.3526C4.37152 51.8761 4.21065 51.3568 3.95633 50.9539C3.27763 49.8754 2.51619 48.8489 1.79 47.8011C1.01018 46.6781 1.00864 46.5188 1.77008 45.4219C2.48249 44.3955 3.23626 43.3935 3.89352 42.3319C4.17082 41.8845 4.36386 41.3223 4.39756 40.7999C4.48336 39.4778 4.46804 38.1465 4.4711 36.8198C4.47264 36.0002 4.81582 35.4992 5.62015 35.2372C7.14608 34.7409 8.85893 34.4712 10.1045 33.5674C11.3516 32.6635 12.1222 31.1024 13.0997 29.8278C13.7156 29.025 14.0358 28.9163 15.0071 29.2073C16.3492 29.6102 17.6836 30.0407 19.0364 30.4069C19.4041 30.5065 19.8453 30.5065 20.213 30.4053C21.5628 30.0331 22.9018 29.6133 24.2347 29.1828C25.0191 28.93 25.6028 29.1016 26.0931 29.788C26.8944 30.9078 27.7232 32.0109 28.5904 33.0802C28.86 33.4126 29.2553 33.7052 29.6536 33.86C30.9605 34.364 32.2887 34.8129 33.6216 35.2464C34.3892 35.4961 34.7278 35.9925 34.7324 36.7815C34.74 38.1848 34.7446 39.5896 34.8044 40.9914C34.8197 41.3728 34.9484 41.7957 35.1568 42.1128C35.9243 43.2863 36.7241 44.4414 37.556 45.5705C38.0692 46.266 38.0953 46.8803 37.5744 47.585C36.7716 48.6728 35.9887 49.7773 35.2701 50.9217C35.0036 51.3445 34.8381 51.8899 34.8059 52.3909C34.7278 53.6119 34.7569 54.839 34.7355 56.0646C34.7125 57.399 34.5577 57.6058 33.2907 58.0546C33.0303 58.1435 32.7729 58.24 32.4343 58.3626ZM35.2472 46.5908C35.1353 46.4207 35.0419 46.2721 34.9407 46.1266C34.2283 45.0986 33.4807 44.0937 32.8173 43.035C32.5615 42.626 32.396 42.1036 32.3653 41.6226C32.2887 40.4261 32.2887 39.2235 32.3102 38.0239C32.3194 37.526 32.1371 37.3024 31.6775 37.1583C30.5361 36.7983 29.3916 36.4322 28.2839 35.9833C27.8151 35.7933 27.3509 35.4594 27.0246 35.0718C26.2524 34.1572 25.5415 33.1859 24.8491 32.207C24.5702 31.8117 24.3236 31.7014 23.844 31.8638C22.6383 32.2713 21.4157 32.6375 20.1839 32.9638C19.8132 33.0618 19.3735 33.0588 19.0027 32.9592C17.748 32.6221 16.5039 32.2407 15.2706 31.8347C14.8815 31.706 14.67 31.7857 14.4387 32.1013C13.6849 33.1308 12.9311 34.1618 12.1222 35.1484C11.848 35.4839 11.4496 35.7796 11.0467 35.9389C9.86243 36.4061 8.65516 36.8182 7.44024 37.2012C7.01279 37.3361 6.89482 37.5475 6.89636 37.9642C6.90249 39.2143 6.90402 40.4674 6.83507 41.716C6.81056 42.148 6.65429 42.6199 6.41989 42.986C5.74731 44.0385 5.02571 45.0634 4.28113 46.0653C3.98391 46.4652 4.00536 46.7409 4.29338 47.1285C5.00733 48.0921 5.71514 49.0649 6.34022 50.0853C6.61752 50.5372 6.79677 51.1071 6.83507 51.6387C6.91934 52.8076 6.91321 53.9857 6.89023 55.1607C6.8795 55.6617 7.06488 55.8716 7.52757 56.0156C8.695 56.3802 9.85783 56.7678 10.9931 57.2197C11.419 57.3882 11.8388 57.6962 12.1314 58.0485C12.8974 58.9708 13.6114 59.9375 14.3054 60.9149C14.6118 61.3484 14.8876 61.5047 15.4345 61.3086C16.5361 60.9133 17.6591 60.5579 18.7959 60.2822C19.3107 60.1565 19.9066 60.1535 20.4214 60.2791C21.5827 60.561 22.7256 60.9333 23.8578 61.3208C24.2975 61.471 24.5442 61.3959 24.8108 61.0221C25.4925 60.0662 26.1743 59.1056 26.9403 58.2186C27.3187 57.7804 27.8381 57.399 28.3697 57.1753C29.4713 56.7096 30.6173 56.3465 31.7587 55.9849C32.1784 55.8517 32.3056 55.6372 32.3025 55.2159C32.2949 53.9903 32.2857 52.7632 32.3623 51.5406C32.3929 51.0596 32.5645 50.5403 32.8204 50.1312C33.4853 49.0741 34.2329 48.0676 34.9453 47.0412C35.048 46.9018 35.1414 46.7532 35.2472 46.5908ZM29.9815 58.9907C29.4223 59.4442 28.8891 59.7659 28.5015 60.2147C27.8197 61.0053 27.2483 61.8907 26.5895 62.7012C26.2861 63.075 26.2754 63.3676 26.4914 63.7873C27.5501 65.8525 28.5735 67.9344 29.6138 70.0087C29.7563 70.2937 29.9171 70.5694 30.1316 70.9632C30.3032 70.1497 30.4411 69.4771 30.5851 68.8061C30.8731 67.4718 31.4369 67.1746 32.7285 67.6786C33.5236 67.9881 34.3157 68.3021 35.2671 68.6774C33.4914 65.425 31.8077 62.3396 29.9815 58.9907ZM9.22509 58.98C7.39428 62.3381 5.70901 65.4327 4.01761 68.535C4.1126 68.5717 4.13865 68.5932 4.1555 68.5855C5.00886 68.2531 5.85762 67.9084 6.71404 67.5851C7.70069 67.2129 8.34875 67.5683 8.58009 68.6054C8.74402 69.3439 8.88957 70.0853 9.0489 70.8544C9.1347 70.787 9.18985 70.764 9.20977 70.7257C10.4124 68.3389 11.6212 65.9551 12.7963 63.5545C12.8867 63.3706 12.8071 63.0137 12.6768 62.8283C12.0441 61.9336 11.4037 61.0405 10.6928 60.2086C10.3083 59.7582 9.77816 59.4334 9.22509 58.98Z" fill="#31B7BC"/>
<path d="M40.4378 30.6627C40.4378 26.7332 40.45 22.8036 40.4255 18.8741C40.4209 18.1786 40.6446 17.6699 41.1318 17.1874C44.1944 14.1525 47.2371 11.0947 50.2874 8.04753C51.2112 7.12374 51.7321 7.1268 52.6698 8.06285C55.7201 11.11 58.7628 14.1663 61.8238 17.2042C62.2896 17.6669 62.5117 18.1556 62.5102 18.8235C62.4949 26.6826 62.5025 34.5417 62.501 42.4008C62.501 43.7918 62.1394 44.1442 60.7192 44.1442C54.519 44.1457 48.3172 44.1457 42.1169 44.1442C40.8208 44.1442 40.4393 43.7551 40.4393 42.4529C40.4378 38.5218 40.4378 34.5923 40.4378 30.6627ZM60.0191 41.6731C60.0313 41.4556 60.0466 41.3085 60.0466 41.1599C60.0482 33.9105 60.0543 26.6596 60.0283 19.4103C60.0267 19.0855 59.803 18.6933 59.564 18.4497C57.0913 15.9403 54.594 13.457 52.1014 10.966C51.9068 10.7714 51.7015 10.5891 51.4732 10.3731C51.2541 10.5768 51.0657 10.7423 50.8895 10.9185C48.3968 13.408 45.9134 15.9066 43.4069 18.3823C43.0346 18.75 42.8753 19.1161 42.8768 19.6477C42.8937 26.7439 42.8891 33.8416 42.8891 40.9378C42.8891 41.1798 42.8891 41.4203 42.8891 41.6716C48.6496 41.6731 54.2892 41.6731 60.0191 41.6731Z" fill="#31B7BC"/>
<path d="M76 30.5647C75.9602 31.4486 75.9234 32.2698 75.8836 33.1691C75.0256 33.1047 74.2764 33.048 73.5334 32.9913C73.5334 32.1472 73.5334 31.3766 73.5334 30.5647C74.3607 30.5647 75.1114 30.5647 76 30.5647Z" fill="#31B7BC"/>
<path d="M47.6982 58.8543C47.758 59.5621 47.8208 60.3097 47.8943 61.183C47.0609 61.2305 46.2673 61.2764 45.4124 61.3254C45.4124 60.4798 45.4124 59.7092 45.4124 58.8543C46.1539 58.8543 46.877 58.8543 47.6982 58.8543Z" fill="#31B7BC"/>
<path d="M37.8394 60.3817C37.0136 60.1351 36.2675 59.9129 35.4325 59.6648C35.6991 58.8789 35.9412 58.165 36.2093 57.3714C36.96 57.5843 37.6785 57.7896 38.4476 58.0087C38.2408 58.8191 38.0478 59.5713 37.8394 60.3817Z" fill="#31B7BC"/>
<path d="M40.7273 58.502C41.5332 58.5954 42.2517 58.6782 43.0346 58.7701C42.9703 59.5667 42.9105 60.3143 42.8401 61.186C42.0158 61.0972 41.2314 61.0114 40.3489 60.9164C40.4807 60.0738 40.6002 59.317 40.7273 58.502Z" fill="#31B7BC"/>
<path d="M60.7774 54.2645C61.2202 54.9401 61.6476 55.5943 62.1165 56.3128C61.3749 56.7571 60.6886 57.1692 59.9532 57.6104C59.5518 56.8765 59.1887 56.2117 58.7858 55.4733C59.4461 55.0749 60.0849 54.6858 60.7774 54.2645Z" fill="#31B7BC"/>
<path d="M21.6869 15.2892C21.2702 15.9909 20.9101 16.5975 20.5041 17.2808C19.7978 16.9055 19.1161 16.5409 18.3485 16.1334C18.7775 15.4072 19.185 14.7178 19.637 13.9518C20.3295 14.4037 20.976 14.8266 21.6869 15.2892Z" fill="#31B7BC"/>
<path d="M18.6411 21.5551C17.8598 21.29 17.1459 21.048 16.3277 20.7707C16.6265 19.9909 16.9099 19.2479 17.2286 18.4191C17.9946 18.7485 18.704 19.0533 19.47 19.3827C19.1942 20.1027 18.9368 20.7799 18.6411 21.5551Z" fill="#31B7BC"/>
<path d="M72.6678 23.6263C72.4395 22.8726 72.2219 22.1571 71.9921 21.3988C72.752 21.1322 73.4644 20.8825 74.2841 20.596C74.5307 21.385 74.7667 22.1433 75.0348 22.9997C74.2197 23.2157 73.4736 23.4134 72.6678 23.6263Z" fill="#31B7BC"/>
<path d="M37.7306 0.969748C38.5779 0.787441 39.3378 0.623519 40.1865 0.43968C40.3321 1.25623 40.4654 2.01303 40.614 2.85103C39.8464 3.01189 39.1202 3.16355 38.3389 3.32748C38.1351 2.54157 37.9482 1.81234 37.7306 0.969748Z" fill="#31B7BC"/>
<path d="M17.9747 23.7887C17.8077 24.5961 17.6606 25.3084 17.5044 26.0698C16.7046 25.9396 15.96 25.817 15.1005 25.6761C15.2675 24.8504 15.4238 24.0706 15.5985 23.2096C16.4181 23.4088 17.1489 23.588 17.9747 23.7887Z" fill="#31B7BC"/>
<path d="M73.371 18.2291C72.5973 18.5738 71.9094 18.8817 71.1434 19.2234C70.7971 18.5324 70.4631 17.8691 70.1 17.1475C70.8293 16.7477 71.508 16.3754 72.2434 15.971C72.6233 16.7308 72.9726 17.4309 73.371 18.2291Z" fill="#31B7BC"/>
<path d="M22.7348 9.95485C23.3614 10.5278 23.9206 11.0395 24.5335 11.6017C24.0401 12.1946 23.5637 12.7691 23.0489 13.388C22.4054 12.8917 21.7895 12.4183 21.1124 11.8959C21.6501 11.2524 22.1634 10.6381 22.7348 9.95485Z" fill="#31B7BC"/>
<path d="M62.6772 52.9133C63.2946 52.3894 63.8507 51.919 64.4498 51.4104C64.9921 51.9956 65.5069 52.5502 66.1059 53.1967C65.4839 53.7329 64.8834 54.2507 64.1939 54.8436C63.6792 54.1894 63.2027 53.5812 62.6772 52.9133Z" fill="#31B7BC"/>
<path d="M26.1911 9.95332C25.612 9.33133 25.0988 8.77829 24.5289 8.16702C25.1784 7.61091 25.7867 7.09004 26.4516 6.52167C26.9694 7.18502 27.4459 7.79628 27.9545 8.44738C27.3524 8.96059 26.8009 9.43091 26.1911 9.95332Z" fill="#31B7BC"/>
<path d="M62.5883 8.33861C61.9295 7.86829 61.3336 7.44239 60.6932 6.98586C61.1221 6.32251 61.5343 5.68827 62.0123 4.95138C62.6986 5.42783 63.3528 5.88283 64.0897 6.39605C63.5734 7.06399 63.0878 7.69058 62.5883 8.33861Z" fill="#31B7BC"/>
<path d="M54.4041 3.93874C53.6181 3.70741 52.944 3.50978 52.1841 3.28764C52.3756 2.50633 52.561 1.75566 52.7663 0.91766C53.5737 1.15359 54.3382 1.37572 55.1854 1.62237C54.9204 2.40982 54.6737 3.13904 54.4041 3.93874Z" fill="#31B7BC"/>
<path d="M47.6002 2.54616C47.6538 1.74953 47.7028 1.00039 47.761 0.127155C48.5975 0.21601 49.385 0.298737 50.2721 0.392189C50.1403 1.22406 50.0208 1.98239 49.8906 2.8066C49.1184 2.71775 48.403 2.63655 47.6002 2.54616Z" fill="#31B7BC"/>
<path d="M72.0289 39.8117C72.8118 40.0829 73.541 40.3357 74.3331 40.6099C74.0252 41.4065 73.7448 42.1327 73.4246 42.9585C72.6739 42.6321 71.9691 42.3242 71.1863 41.9841C71.4697 41.2533 71.7393 40.5609 72.0289 39.8117Z" fill="#31B7BC"/>
<path d="M68.9648 46.0745C69.38 45.379 69.7431 44.7693 70.1491 44.0875C70.8523 44.4629 71.5371 44.8275 72.3047 45.2365C71.8696 45.9688 71.462 46.6551 71.0147 47.4104C70.3176 46.9554 69.6665 46.531 68.9648 46.0745Z" fill="#31B7BC"/>
<path d="M67.5369 13.2548C68.1712 12.7584 68.787 12.2758 69.4581 11.7503C69.9499 12.4244 70.411 13.0556 70.9473 13.7894C70.2578 14.2444 69.599 14.6795 68.902 15.1391C68.4286 14.4865 67.9996 13.8936 67.5369 13.2548Z" fill="#31B7BC"/>
<path d="M57.6735 58.7333C56.84 59.0566 56.1154 59.3385 55.3248 59.6464C55.0521 58.8605 54.7993 58.1282 54.5282 57.3453C55.2467 57.0604 55.9223 56.7938 56.6899 56.4905C57.0116 57.2228 57.3211 57.9275 57.6735 58.7333Z" fill="#31B7BC"/>
<path d="M31.8475 5.88283C31.1642 6.298 30.559 6.66568 29.8589 7.09004C29.4223 6.42822 28.9872 5.76946 28.5092 5.04483C29.2476 4.59903 29.911 4.19764 30.6678 3.73958C31.0677 4.46574 31.4385 5.13982 31.8475 5.88283Z" fill="#31B7BC"/>
<path d="M58.6816 5.79857C57.9523 5.44468 57.3196 5.13675 56.601 4.78746C56.912 4.0567 57.2139 3.34892 57.557 2.54157C58.32 2.90924 59.037 3.25394 59.8368 3.64C59.4415 4.37689 59.0768 5.05709 58.6816 5.79857Z" fill="#31B7BC"/>
<path d="M67.6104 47.9711C68.26 48.4813 68.856 48.9501 69.5224 49.474C68.9755 50.1281 68.4638 50.7409 67.9046 51.4104C67.278 50.8329 66.705 50.3043 66.1044 49.7497C66.6146 49.1492 67.0865 48.59 67.6104 47.9711Z" fill="#31B7BC"/>
<path d="M50.0193 58.4698C50.8543 58.3044 51.5452 58.168 52.2913 58.0209C52.4936 58.8115 52.6805 59.5422 52.8904 60.3664C52.0677 60.5457 51.2863 60.7157 50.4253 60.9026C50.2843 60.0585 50.1572 59.2956 50.0193 58.4698Z" fill="#31B7BC"/>
<path d="M33.9418 4.85487C33.6017 4.09194 33.2999 3.42093 32.9491 2.63502C33.732 2.32249 34.4903 2.01763 35.2962 1.69591C35.572 2.49561 35.8186 3.21258 36.0898 4.00002C35.3743 4.28497 34.7002 4.55307 33.9418 4.85487Z" fill="#31B7BC"/>
<path d="M73.1473 25.9074C73.9685 25.7696 74.71 25.6439 75.5557 25.4999C75.6629 26.3486 75.7625 27.1391 75.8713 27.9863C75.0256 28.0645 74.2734 28.1334 73.4522 28.21C73.3511 27.4563 73.2561 26.7378 73.1473 25.9074Z" fill="#31B7BC"/>
<path d="M75.0716 38.1802C74.232 37.9626 73.5012 37.7742 72.7107 37.5689C72.8577 36.8213 72.9941 36.1319 73.1534 35.3246C73.9317 35.441 74.6931 35.5559 75.5664 35.6876C75.3994 36.5241 75.2447 37.3054 75.0716 38.1802Z" fill="#31B7BC"/>
<path d="M67.7529 9.87212C67.1983 10.3884 66.6452 10.9032 66.0416 11.4654C65.5575 10.8603 65.1009 10.2904 64.5693 9.62701C64.9079 9.25473 65.4318 8.68177 66.0125 8.04293C66.6054 8.66492 67.1554 9.24401 67.7529 9.87212Z" fill="#31B7BC"/>
<path d="M42.9274 2.47263C42.86 1.74647 42.791 1.00039 42.7098 0.133283C43.5555 0.0873233 44.343 0.0459596 45.1856 0C45.1856 0.857913 45.1856 1.62697 45.1856 2.47263C44.4319 2.47263 43.7103 2.47263 42.9274 2.47263Z" fill="#31B7BC"/>
<path d="M19.5435 57.6242C13.5057 57.6104 8.56324 52.6329 8.57243 46.5724C8.58162 40.4797 13.547 35.5498 19.66 35.5635C25.7024 35.5773 30.6525 40.5594 30.6341 46.6107C30.6157 52.7065 25.6503 57.6364 19.5435 57.6242ZM28.1782 46.5862C28.1614 41.8539 24.3144 38.0132 19.5971 38.0147C14.883 38.0163 11.0222 41.8815 11.0253 46.5954C11.0283 51.3384 14.9244 55.196 19.6845 55.1669C24.3496 55.1393 28.1951 51.2557 28.1782 46.5862Z" fill="#31B7BC"/>
<path d="M51.4855 15.9541C54.1865 15.9602 56.3881 18.1862 56.3697 20.8902C56.3498 23.5911 54.1206 25.7787 51.4119 25.7558C48.7508 25.7343 46.566 23.5237 46.5676 20.8549C46.5691 18.1479 48.7753 15.948 51.4855 15.9541ZM51.5008 18.4053C50.1664 18.3884 49.0464 19.47 49.0204 20.8013C48.9928 22.1633 50.1097 23.3 51.4748 23.3015C52.8 23.3031 53.9138 22.1924 53.9169 20.8672C53.9199 19.5328 52.8291 18.4221 51.5008 18.4053Z" fill="#31B7BC"/>
<path d="M25.7438 45.6088C25.6258 45.8049 25.4864 46.1343 25.2627 46.3916C24.846 46.8727 24.4109 47.3476 23.9283 47.7582C23.4319 48.181 23.3553 48.6498 23.4962 49.2488C23.6464 49.8922 23.8073 50.554 23.7996 51.2051C23.795 51.6341 23.6081 52.1963 23.2986 52.443C23.0213 52.6636 22.4131 52.6666 22.0423 52.5257C21.3345 52.2576 20.7048 51.7904 20.0139 51.4702C19.7841 51.3645 19.4225 51.3645 19.1927 51.4702C18.5232 51.7796 17.9195 52.2408 17.2332 52.4935C16.8348 52.6406 16.196 52.6697 15.9095 52.443C15.5908 52.1902 15.4422 51.5927 15.4162 51.1347C15.384 50.5877 15.5004 50.0102 15.6613 49.4801C15.9049 48.6712 15.7287 48.0692 15.0653 47.5422C14.6501 47.2128 14.2441 46.8282 13.9592 46.3855C13.7202 46.0132 13.4536 45.4479 13.5792 45.1063C13.7202 44.7202 14.2426 44.3663 14.6746 44.2177C15.2905 44.0063 15.9723 43.9573 16.6311 43.9113C17.1443 43.8746 17.3787 43.6095 17.5595 43.1745C17.823 42.5402 18.0651 41.8769 18.4527 41.3223C18.7116 40.9515 19.2065 40.5302 19.5987 40.5287C19.9894 40.5272 20.4995 40.9424 20.7477 41.3146C21.1675 41.9427 21.3958 42.6949 21.765 43.3614C21.8861 43.5804 22.1741 43.7857 22.4223 43.8424C23.1408 44.0063 23.8793 44.0783 24.607 44.2101C25.2872 44.3372 25.6794 44.7478 25.7438 45.6088ZM21.1093 49.2978C20.5807 47.9512 20.9346 47.0703 21.9289 46.3625C21.3621 46.1986 20.8397 46.168 20.4766 45.9106C20.0966 45.6425 19.8729 45.1553 19.6033 44.7953C19.3015 45.1936 19.0808 45.6655 18.7101 45.9228C18.35 46.1741 17.8368 46.2063 17.2638 46.3702C18.3102 47.0764 18.5936 47.9788 18.2443 49.1584C19.1728 48.3801 20.046 48.5088 21.1093 49.2978Z" fill="#31B7BC"/>
</svg>
