<svg width="56" height="70" viewBox="0 0 56 70" fill="none" xmlns="http://www.w3.org/2000/svg">
<path d="M38.3135 69.9986C38.2299 69.9289 38.1561 69.8428 38.0614 69.7936C28.9392 64.9688 19.8156 60.1469 10.6906 55.3263C10.6098 55.2839 10.5263 55.247 10.3591 55.169C10.2045 55.4151 10.0471 55.653 9.90223 55.8991C7.38524 60.1756 4.87102 64.4534 2.35542 68.7299C2.25095 68.9076 2.15623 69.0908 2.03505 69.2576C1.6715 69.7553 1.07255 69.8988 0.564131 69.6186C0.0473599 69.3328 -0.139291 68.7682 0.108648 68.2035C0.18108 68.0368 0.282763 67.8823 0.374695 67.725C3.15635 62.9933 5.9366 58.2629 8.71965 53.5325C9.34228 52.4744 9.76712 52.3554 10.8606 52.9228C11.6768 53.3452 12.4917 53.7677 13.3998 54.2394C13.5336 53.1579 13.6561 52.1695 13.7759 51.181C14.276 47.044 14.8276 42.9124 15.2482 38.7672C15.4182 37.0979 15.3778 35.3958 15.297 33.7155C15.1271 30.1924 14.9362 26.6664 14.6061 23.1542C14.4863 21.8855 13.8971 20.6646 13.6102 19.4027C13.4249 18.5879 13.2954 17.7348 13.3177 16.9022C13.4026 13.6989 15.9405 11.9749 19.062 12.947C20.6402 13.4378 21.7657 14.5042 22.7268 15.762C24.3816 17.9275 25.3706 20.3939 26.0559 22.9915C26.5671 24.9288 27.0727 26.8674 27.5839 28.8061C27.6229 28.9551 27.6842 29.1 27.7566 29.3092C27.8876 29.1301 27.9878 29.0098 28.07 28.8799C32.8143 21.3236 37.553 13.7632 42.307 6.21371C42.9645 5.17056 43.6289 4.11648 44.4201 3.17177C45.5734 1.79504 47.0708 0.948766 48.9596 1.05814C51.5323 1.20716 53.2442 3.39735 52.719 5.9266C52.5185 6.89592 52.173 7.86114 51.7356 8.75389C48.8008 14.7393 45.8241 20.7043 42.8614 26.6774C42.7625 26.877 42.672 27.0807 42.5661 27.3049C47.0972 27.2721 49.3579 31.0359 47.9553 34.4907C51.5532 35.1962 53.1662 37.9154 52.6661 40.6716C52.8528 40.7291 53.0436 40.7892 53.2358 40.8453C55.7821 41.5849 56.8685 44.352 55.2054 46.3836C53.1467 48.8992 50.8525 51.2302 48.6657 53.646C48.4707 53.8607 48.2492 54.0903 48.1586 54.3528C46.515 59.0723 43.6122 62.9208 39.7538 66.1145C39.2788 66.5083 38.8261 66.9266 38.3929 67.3067C38.879 67.7237 39.4669 68.0409 39.7649 68.5289C40.1355 69.1346 39.6702 69.6322 39.1479 70C38.8707 69.9986 38.5921 69.9986 38.3135 69.9986ZM32.9257 51.5679C32.6457 51.5037 32.3978 51.4558 32.154 51.3916C29.9519 50.8009 28.6996 48.9799 29.1607 46.843C29.3445 45.9926 29.7346 45.1559 30.1761 44.3958C33.0706 39.4125 36.1921 34.5481 38.8804 29.4623C42.7012 22.2341 46.2197 14.8528 49.8413 7.52618C50.17 6.86037 50.3998 6.11937 50.5238 5.38794C50.7662 3.95652 49.4931 2.92978 48.0723 3.35497C47.036 3.66532 46.2099 4.2737 45.6207 5.16509C44.9898 6.11937 44.3769 7.08596 43.7682 8.05527C39.7872 14.3893 35.8063 20.7248 31.8309 27.0629C30.8224 28.6721 29.8139 30.2812 28.8612 31.9218C28.6704 32.2513 28.6258 32.7394 28.6954 33.1222C28.8696 34.0833 29.1621 35.0239 29.3794 35.9782C29.5465 36.7137 29.2247 37.2866 28.6007 37.441C27.9781 37.5955 27.4237 37.2278 27.2106 36.5168C27.1841 36.4293 27.1758 36.3377 27.1521 36.2502C25.9542 31.621 24.7841 26.9836 23.5444 22.3654C22.997 20.3255 22.0652 18.4389 20.7099 16.7819C20.0329 15.9534 19.2473 15.2452 18.1608 14.9704C16.6175 14.5794 15.6076 15.252 15.5616 16.7983C15.538 17.6049 15.6759 18.432 15.8569 19.225C16.084 20.2203 16.552 21.1732 16.6997 22.174C16.995 24.1755 17.222 26.1948 17.3362 28.2141C17.6329 33.4257 17.7388 38.6291 16.9267 43.8243C16.364 47.4227 16.0492 51.058 15.5951 54.6727C15.524 55.2374 15.7135 55.519 16.2094 55.7788C20.4633 58.0086 24.7033 60.2631 28.9476 62.5107C31.3322 63.7739 33.7169 65.0399 36.1169 66.3114C39.8388 63.1382 43.5509 60.006 45.3241 55.2497C43.7417 55.2442 42.7207 54.4431 41.9811 53.1224C41.2164 53.9523 40.5046 54.7603 39.7538 55.53C38.3372 56.9819 36.2924 57.2799 34.6056 56.3092C32.9007 55.3235 32.2961 53.6802 32.9257 51.5679ZM46.2531 32.507C46.1264 31.1152 45.253 30.0078 43.913 29.6551C42.4978 29.2818 41.3654 29.707 40.6494 30.9224C37.7382 35.862 34.8312 40.8029 31.9395 45.7534C31.6791 46.2005 31.4687 46.6981 31.3531 47.1998C31.1414 48.1186 31.4478 48.66 32.3003 49.0975C33.3673 49.6443 34.2936 49.3695 35.2045 48.1418C38.6576 43.4907 42.1009 38.8328 45.5177 34.1558C45.8673 33.6786 46.0136 33.0607 46.2531 32.507ZM50.677 39.6299C50.496 38.3721 49.617 37.2633 48.3927 36.8723C47.2379 36.5032 46.437 36.8053 45.5999 37.9319C42.3627 42.2876 39.1214 46.6407 35.894 51.0033C35.5695 51.4421 35.2644 51.9111 35.0485 52.4074C34.6195 53.3945 35.0221 54.2065 36.057 54.5675C36.9122 54.8669 37.6143 54.5716 38.1826 53.9577C42.0521 49.7838 45.9258 45.6112 49.7577 41.4031C50.1937 40.9246 50.3776 40.226 50.677 39.6299ZM43.9966 51.3683C43.9827 52.5919 44.7084 53.2099 45.5622 52.8954C46.2141 52.6562 46.8702 52.2706 47.3591 51.7894C48.8788 50.291 50.3358 48.7283 51.7844 47.1616C52.375 46.5231 52.9168 45.8354 53.4225 45.13C53.8515 44.5298 53.7749 43.8462 53.3264 43.3691C52.8806 42.8947 52.1758 42.7443 51.5434 43.0532C51.2412 43.2009 50.957 43.4224 50.7286 43.6671C48.7353 45.7944 46.742 47.9217 44.7864 50.0832C44.388 50.5234 44.1554 51.1045 43.9966 51.3683Z" fill="#31B7BC"/>
<path d="M28.2845 0C28.8682 0.330853 29.0548 0.829867 29.0464 1.48064C29.0214 3.77747 29.0353 6.07566 29.0353 8.37386C29.0353 8.51058 29.0395 8.64729 29.0283 8.78264C28.9768 9.46212 28.5715 9.87774 27.9544 9.89004C27.3095 9.90372 26.8498 9.47716 26.8178 8.76897C26.7858 8.04301 26.8067 7.31294 26.8067 6.58561C26.8067 4.8794 26.8234 3.17318 26.7997 1.46696C26.7899 0.813461 26.9905 0.315814 27.5881 0C27.8193 0 28.0519 0 28.2845 0Z" fill="#31B7BC"/>
<path d="M39.0449 4.93953C38.8192 5.34421 38.7148 5.65455 38.5114 5.8774C36.7911 7.75041 35.0556 9.61112 33.3144 11.4664C32.7767 12.0392 32.0789 12.0994 31.6053 11.6482C31.1317 11.197 31.1428 10.5818 31.6666 10.0117C33.3882 8.13869 35.121 6.27661 36.8427 4.4036C37.2243 3.98798 37.7021 3.77334 38.1994 4.03994C38.5379 4.2204 38.7551 4.61825 39.0449 4.93953Z" fill="#31B7BC"/>
<path d="M24.7075 10.9797C24.4289 11.2901 24.2228 11.6715 23.901 11.8451C23.4344 12.0953 22.9552 11.9258 22.5875 11.5321C21.4272 10.2907 20.2669 9.05067 19.1066 7.80928C18.5104 7.17219 17.9073 6.54192 17.3223 5.89526C16.7776 5.29234 16.779 4.65934 17.3 4.20955C17.7889 3.78709 18.4394 3.84178 18.9603 4.39821C20.721 6.27259 22.4733 8.15381 24.2102 10.0487C24.4122 10.2702 24.5027 10.5901 24.7075 10.9797Z" fill="#31B7BC"/>
</svg>
