<svg width="17" height="14" viewBox="0 0 17 14" fill="none" xmlns="http://www.w3.org/2000/svg">
<path d="M6.14887 9.41927C7.37954 7.93115 8.58608 6.49182 9.78055 5.04028C10.963 3.60095 12.1454 2.16162 13.3278 0.734485C13.7501 0.22218 14.3051 0.0148185 14.9445 0.173389C15.5599 0.33196 15.958 0.734485 16.127 1.35657C16.2959 1.96646 16.0546 2.46656 15.6805 2.91788C13.545 5.5038 11.4094 8.10192 9.27381 10.7C8.6826 11.4197 8.10346 12.1516 7.48813 12.8468C6.63148 13.8349 5.5818 13.8105 4.76135 12.8224C3.50655 11.2855 2.22762 9.73641 0.960749 8.1873C0.297152 7.38225 0.333348 6.39423 1.03314 5.79654C1.76913 5.16226 2.73436 5.28424 3.42209 6.11369C4.32699 7.19928 5.21983 8.29708 6.14887 9.41927Z" fill="#31B7BC"/>
</svg>
