<svg width="12" height="10" viewBox="0 0 12 10" fill="none" xmlns="http://www.w3.org/2000/svg">
<path d="M4.33001 6.91072C5.27083 5.80468 6.19321 4.7349 7.10636 3.65606C8.01028 2.58629 8.91421 1.51652 9.81814 0.455808C10.141 0.0750409 10.5653 -0.0790791 11.0541 0.0387774C11.5245 0.156634 11.8289 0.455808 11.958 0.918168C12.0872 1.37146 11.9027 1.74316 11.6168 2.0786C9.98416 4.00057 8.35156 5.9316 6.71896 7.86263C6.267 8.39752 5.82426 8.94147 5.35385 9.45823C4.69896 10.1926 3.8965 10.1744 3.26928 9.4401C2.31001 8.2978 1.3323 7.14643 0.363804 5.99506C-0.143501 5.39671 -0.11583 4.66238 0.419147 4.21815C0.981795 3.74672 1.71969 3.83738 2.24545 4.45386C2.93723 5.26073 3.61978 6.07666 4.33001 6.91072Z" fill="#EDE526"/>
</svg>
